<svg width="70" height="70" viewBox="0 0 70 70" fill="none" xmlns="http://www.w3.org/2000/svg">
<path d="M21.9332 9.47254C27.7658 9.47254 32.6661 13.5157 34.0651 18.9451C25.899 19.4072 19.1331 25.5297 17.8485 33.385C13.066 31.6522 9.56576 27.147 9.56576 21.8331C9.44908 15.0175 15.0495 9.47254 21.9332 9.47254Z" fill="#9BC9FF"/>
<path d="M52.5003 36.273C56.9328 36.273 60.8997 38.0058 63.8166 40.8938C66.7334 43.7817 68.4835 47.7094 68.4835 52.0991C68.4835 60.8786 61.2509 68.0408 52.3837 68.0408H17.3837C12.95 68.0408 8.98424 66.308 6.06623 63.42C3.15052 60.532 1.40039 56.6044 1.40039 52.2146C1.40039 47.8249 3.15052 43.8973 6.06623 41.0093C8.98424 38.1213 12.95 36.3885 17.3837 36.3885C17.3837 35.4644 17.5003 34.4247 17.617 33.5005C18.9004 25.6452 25.6664 19.5227 33.8336 19.0606C34.1836 19.0606 34.5336 19.0606 34.8836 19.0606C44.6831 18.9451 52.5003 26.6849 52.5003 36.273Z" fill="#C2E3F7"/>
<path d="M17.7333 34.7714C17.6166 34.7714 17.3833 34.7714 17.2666 34.6558C11.7829 32.692 8.04932 27.4937 8.04932 21.7177C8.04932 14.0934 14.2342 7.97091 21.9336 7.97091C25.0826 7.97091 28.1161 9.01059 30.5663 10.9744C33.0165 12.9382 34.6499 15.5952 35.35 18.4832C35.5833 19.2918 35 19.9849 34.2999 20.2159C33.4832 20.447 32.7831 19.8694 32.5498 19.1763C31.383 14.2089 26.9494 10.8589 21.9336 10.8589C15.8665 10.8589 10.9662 15.7107 10.9662 21.7177C10.9662 26.3385 13.883 30.3816 18.3166 31.9989C19.1334 32.2299 19.4822 33.0386 19.2501 33.8472C18.9 34.4248 18.3167 34.7714 17.7333 34.7714Z" fill="#1E81CE"/>
<path d="M35 20.3315C34.65 20.3315 34.4166 20.3315 34.0654 20.3315C26.6006 20.7936 20.4168 26.3385 19.2501 33.6162C19.1334 34.4248 19.0167 35.349 19.0167 36.2731C19.0167 37.0818 18.3167 37.7749 17.5 37.7749C13.6497 37.7749 9.91612 39.2766 7.23377 42.0491C4.43243 44.5905 2.91686 48.2871 2.91686 52.0992C2.91686 55.9114 4.43243 59.608 7.23377 62.2649C10.034 65.0374 13.6497 66.5391 17.5 66.5391H52.5C60.5493 66.5391 67.0843 60.0701 67.0843 52.0992C67.0843 48.2871 65.5664 44.5905 62.7662 41.9336C60.0838 39.1611 56.3502 37.6594 52.5 37.6594C51.6821 37.6594 50.9832 36.9662 50.9832 36.1576C51.0999 27.4937 43.8673 20.3315 35 20.3315ZM52.5 69.4271H17.5C12.833 69.4271 8.40055 67.5788 5.13367 64.3443C1.86563 61.1097 0 56.72 0 52.0992C0 47.4785 1.86563 43.0888 5.13367 39.8542C8.04937 36.9662 11.8996 35.1179 16.0999 34.8869C16.0999 34.3093 16.2165 33.7317 16.3332 33.1541C17.0333 28.9954 19.1334 25.1833 22.2825 22.2953C25.4338 19.4073 29.6341 17.6745 33.8332 17.4435C34.1833 17.4435 34.65 17.4435 35 17.4435C45.034 17.4435 53.2 25.0678 53.8989 34.7714C58.0992 35.1179 61.9494 36.8507 64.8675 39.7387C68.1332 42.9732 70 47.363 70 51.9837C70 61.6873 62.1828 69.4271 52.5 69.4271Z" fill="#1E81CE"/>
<path d="M21.9337 7.39325C21.117 7.39325 20.417 6.70013 20.417 5.8915V1.50177C20.417 0.693138 21.117 2.28882e-05 21.9337 2.28882e-05C22.7505 2.28882e-05 23.4494 0.693138 23.4494 1.50177V5.8915C23.3327 6.70013 22.6338 7.39325 21.9337 7.39325Z" fill="#1E81CE"/>
<path d="M34.5329 13.6312C34.065 13.6312 33.7161 13.4002 33.3661 13.0536C32.8994 12.476 33.0161 11.5519 33.5994 10.9743L37.0985 8.31734C37.6819 7.85527 38.6164 7.97079 39.1998 8.54838C39.6654 9.12598 39.5498 10.0501 38.9665 10.6277L35.4651 13.2847C35.1162 13.5157 34.8829 13.6312 34.5329 13.6312Z" fill="#1E81CE"/>
<path d="M5.71581 35.58C5.24911 35.58 4.89905 35.3489 4.55018 35.0024C4.08233 34.4248 4.20016 33.5006 4.78353 32.923L8.28261 30.2661C8.86599 29.804 9.80053 29.9195 10.3839 30.4971C10.8494 31.0747 10.7328 31.9989 10.1494 32.5765L6.64916 35.2334C6.29913 35.4645 5.95031 35.58 5.71581 35.58Z" fill="#1E81CE"/>
<path d="M5.95037 23.2193H1.51675C0.700033 23.2193 0 22.5262 0 21.7176C0 20.9089 0.700033 20.2158 1.51675 20.2158H5.95037C6.76709 20.2158 7.46599 20.9089 7.46599 21.7176C7.46599 22.5262 6.64926 23.2193 5.95037 23.2193Z" fill="#1E81CE"/>
<path d="M10.6172 12.0139C10.266 12.0139 9.91596 11.8984 9.56594 11.5518L6.41691 8.54834C5.83238 7.97074 5.83238 7.04659 6.41691 6.469C7.00028 5.8914 7.93251 5.8914 8.51589 6.469L11.6661 9.58801C12.2495 10.1656 12.2495 11.0898 11.6661 11.6674C11.3161 11.8984 10.966 12.0139 10.6172 12.0139Z" fill="#1E81CE"/>
<path d="M39.3155 49.2111C38.7333 49.2111 38.1499 48.749 37.9154 48.1714C37.6821 47.3628 38.15 46.5542 38.9667 46.4387C43.0503 45.2835 46.316 43.2041 48.6495 40.2006C50.3996 37.8902 51.0996 35.9264 51.0996 35.9264C51.333 35.1178 52.1497 34.7712 52.8498 34.8867C53.6665 35.1178 54.0165 35.9264 53.8987 36.6195C53.7831 36.9661 51.0996 46.0921 39.7834 49.2111C39.6655 49.2111 39.5501 49.2111 39.3155 49.2111Z" fill="#1E81CE"/>
</svg>
