<svg width="81" height="80" viewBox="0 0 81 80" fill="none" xmlns="http://www.w3.org/2000/svg">
<path d="M5.64369 23.4665C11.165 24.3998 15.3397 29.1998 15.3397 34.9332C15.3397 41.3332 10.0877 46.6665 3.48906 46.6665C3.08506 46.6665 2.68239 46.6665 2.41172 46.6665C2.00905 44.5332 1.87305 42.2665 1.87305 39.9998C2.00905 34.1332 3.35435 28.5332 5.64369 23.4665Z" fill="#9BC9FF"/>
<path d="M40.6546 65.0666C47.1186 65.0666 52.3706 70.2666 52.3706 76.5332C48.5999 77.7332 44.6946 78.3999 40.6546 78.3999C36.4799 78.3999 32.5746 77.7332 28.9399 76.5332C28.9399 70.1332 34.1906 65.0666 40.6546 65.0666Z" fill="#9BC9FF"/>
<path d="M60.8535 38.3999C63.6054 38.3999 65.8374 40.6093 65.8374 43.3333C65.8374 46.0573 63.6054 48.2666 60.8535 48.2666C58.1028 48.2666 55.8721 46.0573 55.8721 43.3333C55.8721 40.6093 58.1028 38.3999 60.8535 38.3999Z" fill="#9BC9FF"/>
<path d="M32.3064 43.4666C35.0584 43.4666 37.2891 45.6759 37.2891 48.3999C37.2891 51.1253 35.0584 53.3333 32.3064 53.3333C29.5544 53.3333 27.3237 51.1253 27.3237 48.3999C27.3237 45.6759 29.5544 43.4666 32.3064 43.4666Z" fill="#9BC9FF"/>
<path d="M37.2893 16.7998C40.04 16.7998 42.2719 19.0092 42.2719 21.7332C42.2719 24.4585 40.04 26.6665 37.2893 26.6665C34.5373 26.6665 32.3066 24.4585 32.3066 21.7332C32.3066 19.0092 34.5373 16.7998 37.2893 16.7998Z" fill="#9BC9FF"/>
<path d="M61.6627 7.73327C68.3947 11.9999 73.6467 18.2666 76.6094 25.7333C74.5894 27.3333 72.0307 28.2666 69.2027 28.2666C62.74 28.2666 57.3521 23.0666 57.3521 16.5333C57.4881 13.0666 59.1041 9.8666 61.6627 7.73327Z" fill="#9BC9FF"/>
<path d="M37.2891 48.3999C37.2891 45.5999 34.9997 43.3332 32.1717 43.3332C29.3437 43.3332 27.0544 45.5999 27.0544 48.3999C27.0544 51.1999 29.3437 53.4665 32.1717 53.4665C34.9997 53.4665 37.2891 51.0665 37.2891 48.3999ZM42.4064 21.7332C42.4064 18.9332 40.1171 16.6665 37.2891 16.6665C34.4611 16.6665 32.1717 18.9332 32.1717 21.7332C32.1717 24.5332 34.4611 26.7999 37.2891 26.7999C40.1171 26.7999 42.4064 24.3999 42.4064 21.7332ZM65.9704 43.3332C65.9704 40.5332 63.6824 38.2665 60.8531 38.2665C58.0251 38.2665 55.7371 40.5332 55.7371 43.3332C55.7371 46.1332 58.0251 48.3999 60.8531 48.3999C63.6824 48.3999 65.9704 46.1332 65.9704 43.3332ZM76.6091 25.7332C78.3584 30.1332 79.3011 34.9332 79.3011 39.9999C79.3011 57.0665 67.9904 71.5999 52.3704 76.5332C52.2357 70.1332 46.9837 65.0665 40.6544 65.0665C34.3264 65.0665 28.9397 70.2665 28.9397 76.5332C15.3397 72.2665 4.97039 60.7999 2.54639 46.6665C2.95172 46.6665 3.22103 46.6665 3.62503 46.6665C10.0877 46.6665 15.4744 41.4665 15.4744 34.9332C15.4744 29.1999 11.2998 24.3999 5.77842 23.4665C11.9731 10.5332 25.3037 1.59987 40.7904 1.59987C48.4651 1.59987 55.7371 3.86653 61.7957 7.7332C59.2384 9.86653 57.6224 13.0665 57.6224 16.6665C57.6224 23.0665 62.873 28.3999 69.4717 28.3999C72.0304 28.3999 74.5891 27.3332 76.6091 25.7332Z" fill="white"/>
<path d="M37.289 18.3999C35.4037 18.3999 33.9223 19.8666 33.9223 21.7332C33.9223 23.5999 35.4037 25.0666 37.289 25.0666C39.1743 25.0666 40.6543 23.5999 40.6543 21.7332C40.6543 19.8666 39.1743 18.3999 37.289 18.3999ZM37.289 28.3999C33.5183 28.3999 30.5557 25.4666 30.5557 21.7332C30.5557 17.9999 33.5183 15.0666 37.289 15.0666C41.0597 15.0666 44.021 17.9999 44.021 21.7332C44.021 25.3332 41.0597 28.3999 37.289 28.3999Z" fill="#1E81CE"/>
<path d="M60.8531 40C58.9678 40 57.4878 41.4667 57.4878 43.3333C57.4878 45.2 58.9678 46.6667 60.8531 46.6667C62.7398 46.6667 64.2198 45.2 64.2198 43.3333C64.2198 41.4667 62.7398 40 60.8531 40ZM60.8531 50C57.0825 50 54.1211 47.0667 54.1211 43.3333C54.1211 39.6 57.0825 36.6667 60.8531 36.6667C64.6251 36.6667 67.5865 39.6 67.5865 43.3333C67.5865 47.0667 64.6251 50 60.8531 50Z" fill="#1E81CE"/>
<path d="M32.3067 45.0667C30.4214 45.0667 28.9401 46.5333 28.9401 48.4C28.9401 50.2667 30.4214 51.7333 32.3067 51.7333C34.1907 51.7333 35.6734 50.2667 35.6734 48.4C35.6734 46.5333 34.0574 45.0667 32.3067 45.0667ZM32.3067 55.0667C28.5361 55.0667 25.5747 52.1333 25.5747 48.4C25.5747 44.6667 28.5361 41.7333 32.3067 41.7333C36.0761 41.7333 39.0387 44.6667 39.0387 48.4C39.0387 52.1333 35.9427 55.0667 32.3067 55.0667Z" fill="#1E81CE"/>
<path d="M52.3706 78.1333C51.6973 78.1333 51.024 77.7333 50.7546 76.9333C50.4853 76 51.024 75.0666 51.832 74.8C67.3173 70.1333 77.6853 56 77.6853 40C77.6853 35.3333 76.7426 30.6666 74.9933 26.4C74.5893 25.6 75.1279 24.5333 75.9359 24.2666C76.7426 23.8666 77.8213 24.4 78.0893 25.2C79.9747 29.8666 80.9173 34.9333 80.9173 40C80.9173 48.6666 78.2253 56.9333 72.9733 63.8666C67.856 70.6666 60.8533 75.6 52.7746 78.1333C52.7746 78.1333 52.64 78.1333 52.3706 78.1333Z" fill="#1E81CE"/>
<path d="M28.94 78.1333C28.8053 78.1333 28.536 78.1333 28.4013 78C21.4 75.7333 15.2053 71.7333 10.3573 66.2666C5.51062 60.8 2.14259 54 0.930594 46.8C0.795927 45.8666 1.33597 45.0666 2.27864 44.9333C3.22131 44.8 4.02796 45.3333 4.16262 46.2666C6.58662 59.7333 16.1466 70.6666 29.3439 74.9333C30.2866 75.2 30.6906 76.1333 30.4213 77.0666C30.2866 77.7333 29.6133 78.1333 28.94 78.1333Z" fill="#1E81CE"/>
<path d="M5.64371 25.2C5.37438 25.2 5.10507 25.2 4.9704 25.0666C4.1624 24.6666 3.7584 23.7333 4.1624 22.8C7.3944 16.1333 12.5117 10.4 18.841 6.39995C25.3037 2.26662 32.8451 -4.73261e-05 40.6544 -4.73261e-05C48.4651 -4.73261e-05 56.0064 2.26662 62.605 6.39995C63.4117 6.93329 63.5464 7.86662 63.1424 8.66662C62.6051 9.46662 61.6624 9.59995 60.8531 9.19995C54.7944 5.33329 47.7931 3.33329 40.6544 3.33329C26.5171 3.33329 13.3197 11.6 7.25973 24.2666C6.99039 24.8 6.31704 25.2 5.64371 25.2Z" fill="#1E81CE"/>
<path d="M6.58643 25.4666C4.70109 29.9999 3.62503 34.9332 3.62503 39.9999C3.62503 41.5999 3.75837 43.3332 4.0277 44.9332C9.41437 44.7999 13.7237 40.3999 13.7237 34.9332C13.7237 30.5332 10.7611 26.7999 6.58643 25.4666ZM3.62503 48.3999C3.22103 48.3999 2.81575 48.3999 2.41175 48.3999C1.60508 48.2666 1.06637 47.7332 0.930371 47.0666C0.526371 44.7999 0.393066 42.5332 0.393066 40.1332C0.393066 34.1332 1.7397 28.2666 4.29704 22.9332C4.5677 22.2666 5.37442 21.8666 6.04775 21.9999C12.5118 23.0666 17.0891 28.6666 17.0891 35.0666C17.0891 42.3999 11.0304 48.3999 3.62503 48.3999Z" fill="#1E81CE"/>
<path d="M61.7961 9.86666C60.0468 11.7333 59.1041 14.1333 59.1041 16.6667C59.1041 22.1333 63.6827 26.6667 69.2027 26.6667C71.0881 26.6667 72.8388 26.1333 74.4548 25.2C71.7614 19.0667 67.4521 13.7333 61.7961 9.86666ZM69.3374 30C61.9308 30 55.8721 24 55.8721 16.6667C55.8721 12.8 57.6228 9.06667 60.5841 6.53333C61.1241 6 61.9307 6 62.6054 6.4C69.7414 10.9333 75.1281 17.4667 78.2254 25.2C78.4947 25.8667 78.2254 26.6667 77.6854 27.0667C75.2627 28.9333 72.3001 30 69.3374 30Z" fill="#1E81CE"/>
<path d="M30.6908 75.3333C33.9228 76.2667 37.2894 76.6667 40.6548 76.6667C44.0214 76.6667 47.3881 76.2667 50.6201 75.3333C49.9468 70.4 45.6374 66.6667 40.6548 66.6667C35.5388 66.6667 31.3641 70.4 30.6908 75.3333ZM40.6548 80C36.4801 80 32.3068 79.3333 28.4014 78.1333C27.7281 77.8667 27.1895 77.2 27.1895 76.5333C27.1895 73.0667 28.6708 69.7333 31.2294 67.2C33.7881 64.6667 37.1548 63.3333 40.6548 63.3333C44.1561 63.3333 47.5228 64.6667 50.0814 67.2C52.6401 69.7333 53.9868 72.9333 54.1214 76.5333C54.1214 77.2 53.7174 77.8667 52.9081 78.1333C49.0041 79.3333 44.8294 80 40.6548 80Z" fill="#1E81CE"/>
</svg>
