<svg width="80" height="84" viewBox="0 0 80 84" fill="none" xmlns="http://www.w3.org/2000/svg">
<path d="M16.5634 61.4837C8.61859 61.4837 2.15499 55.3503 1.88525 47.4837C1.88525 47.3503 1.88525 47.217 1.88525 47.0837C1.88525 40.2837 6.86805 34.5503 13.6009 33.217C13.6009 33.0837 13.6009 33.0837 13.6009 32.9503C13.6009 31.3503 14.0044 29.7503 14.5435 28.2837C16.2935 24.2837 20.4681 21.617 25.1811 21.617C26.7967 21.617 28.4128 22.017 29.8946 22.5503C30.8368 20.817 31.9139 19.217 33.3951 17.8837C36.4924 14.9503 40.8014 13.0837 45.5138 13.0837C55.2098 13.0837 63.0204 20.6837 63.0204 30.017C63.0204 30.9503 62.8858 31.8837 62.7511 32.817C62.8858 32.817 62.8858 32.817 63.0204 32.817C71.0991 32.817 77.5631 39.217 77.5631 46.9503C77.5631 54.5503 71.6378 61.0837 63.8284 61.3503L16.5634 61.4837Z" fill="#C2E3F7"/>
<path d="M62.2126 72.0172C62.2126 73.6172 61.0007 74.8172 59.3847 74.8172C57.7687 74.8172 56.5566 73.6172 56.5566 72.0172C56.5566 70.5505 58.442 68.9505 59.3847 67.4838C60.3273 69.0838 62.2126 70.5505 62.2126 72.0172Z" fill="#C2E3F7"/>
<path d="M52.1125 78.6837C52.1125 80.2837 50.9006 81.4837 49.2846 81.4837C47.6699 81.4837 46.4565 80.2837 46.4565 78.6837C46.4565 77.217 48.3419 75.617 49.2846 74.1503C50.2286 75.7503 52.1125 77.217 52.1125 78.6837Z" fill="white"/>
<path d="M30.2983 78.6837C30.2983 80.2837 29.087 81.4837 27.4707 81.4837C25.8546 81.4837 24.6426 80.2837 24.6426 78.6837C24.6426 77.217 26.528 75.7503 27.4707 74.1503C28.413 75.7503 30.2983 77.3503 30.2983 78.6837Z" fill="white"/>
<path d="M20.1992 72.0172C20.1992 73.6172 18.9868 74.8172 17.3711 74.8172C15.7549 74.8172 14.5435 73.6172 14.5435 72.0172C14.5435 70.5505 16.4284 69.0838 17.3711 67.4838C18.3139 69.0838 20.1992 70.6838 20.1992 72.0172Z" fill="#C2E3F7"/>
<path d="M49.2846 57.217L47.2646 61.0837L38.1089 79.3504V65.0837H26.7969L28.413 61.7504L38.1089 41.3504V57.217H49.2846Z" fill="white"/>
<path d="M24.5079 11.0837C28.6823 11.617 31.9142 14.417 33.3954 18.017C31.9142 19.3504 30.8371 20.9504 29.8948 22.6837C28.4131 22.017 26.797 21.7504 25.1814 21.7504C20.4683 21.7504 16.2938 24.5504 14.5438 28.417C12.7932 26.1504 11.9855 23.3504 12.2542 20.417C13.062 14.417 18.5834 10.2837 24.5079 11.0837Z" fill="white"/>
<path d="M74.6004 20.417C74.8697 20.6837 75.139 21.0837 75.139 21.617C75.139 22.017 75.0044 22.5504 74.6004 22.817C74.331 23.0837 73.927 23.3504 73.3884 23.3504C72.4457 23.3504 71.6377 22.5504 71.6377 21.617C71.6377 21.217 71.7724 20.6837 72.1764 20.417C72.4457 20.1504 72.8497 19.8837 73.3884 19.8837C73.7924 19.8837 74.331 20.017 74.6004 20.417Z" fill="#0B93E2"/>
<path d="M72.85 67.0838C73.1193 67.3505 73.3887 67.7505 73.3887 68.2838C73.3887 68.6838 73.254 69.2171 72.85 69.4838C72.5807 69.7505 72.1767 70.0171 71.638 70.0171C70.6967 70.0171 69.8887 69.2171 69.8887 68.2838C69.8887 67.8838 70.022 67.3505 70.426 67.0838C70.6967 66.8171 71.0993 66.5505 71.638 66.5505C72.1767 66.5505 72.5807 66.6838 72.85 67.0838Z" fill="#0B93E2"/>
<path d="M64.5017 5.35039C64.7711 5.61706 65.0391 6.01706 65.0391 6.55039C65.0391 6.95039 64.9057 7.48372 64.5017 7.75039C64.2324 8.01706 63.8284 8.28372 63.2897 8.28372C62.3471 8.28372 61.5391 7.48372 61.5391 6.55039C61.5391 6.15039 61.6737 5.61706 62.0777 5.35039C62.3471 5.08372 62.7511 4.81706 63.2897 4.81706C63.6937 4.81706 64.2324 5.08372 64.5017 5.35039Z" fill="#0B93E2"/>
<path d="M7.27215 67.0838C7.54095 67.3505 7.81015 67.7505 7.81015 68.2838C7.81015 68.6838 7.67575 69.2171 7.27215 69.4838C7.00242 69.7505 6.59815 70.0171 6.05962 70.0171C5.11695 70.0171 4.30908 69.2171 4.30908 68.2838C4.30908 67.8838 4.44402 67.3505 4.84775 67.0838C5.11695 66.8171 5.52109 66.5505 6.05962 66.5505C6.46335 66.5505 7.00242 66.6838 7.27215 67.0838Z" fill="#0B93E2"/>
<path d="M56.422 31.4837C55.4793 31.4837 54.806 30.817 54.806 29.8837C54.5366 22.9503 48.7473 21.4837 48.478 21.4837C47.534 21.217 46.9967 20.417 47.2647 19.4837C47.534 18.5503 48.342 18.017 49.2847 18.2837C49.5553 18.2837 51.574 18.817 53.594 20.417C55.614 22.017 57.9033 24.817 58.1726 29.7503C58.038 30.6837 57.3646 31.4837 56.422 31.4837Z" fill="#0B93E2"/>
<path d="M22.7571 38.417C22.3535 38.417 21.8148 38.2837 21.5456 37.8837C18.4481 34.417 14.0044 34.9504 13.7357 34.9504C13.7357 34.9504 13.6008 34.9504 13.4659 34.9504C12.5232 34.9504 11.7153 34.1504 11.7153 33.217C11.7153 32.2837 12.3883 31.617 13.1967 31.617C13.8696 31.4837 19.6601 31.0837 23.8347 35.7504C24.5076 36.417 24.3732 37.4837 23.6997 38.1504C23.5653 38.2837 23.1612 38.417 22.7571 38.417Z" fill="#0B93E2"/>
<path d="M14.5435 30.0171C14.1394 30.0171 13.7358 29.8838 13.3311 29.6171L13.1967 29.4838C11.0425 26.8171 10.2342 23.4838 10.6378 20.1505C11.0425 16.8171 12.793 13.8838 15.4858 11.8838C18.179 9.88379 21.4107 8.95045 24.7774 9.35045C29.4905 9.88379 33.3951 13.0838 35.0107 17.3505C35.2806 18.1505 34.8769 19.2171 34.0691 19.4838C33.2607 19.7505 32.1837 19.3505 31.9139 18.5505C30.7025 15.3505 27.8743 13.0838 24.3733 12.6838C21.9498 12.4171 19.5254 13.0838 17.5055 14.5505C15.4858 16.0171 14.2743 18.1505 14.0045 20.6838C13.7358 23.0838 14.4087 25.4838 15.8899 27.4838C16.4285 28.1505 16.4285 29.0838 15.755 29.6171C15.3514 29.8838 14.9473 30.0171 14.5435 30.0171Z" fill="#0B93E2"/>
<path d="M25.0466 8.55032C24.9122 8.55032 24.9122 8.55032 24.7772 8.55032C23.8346 8.41699 23.1611 7.61699 23.296 6.68366L23.9695 1.48366C24.1038 0.550324 24.9122 -0.116343 25.8543 0.0169907C26.7966 0.150324 27.4704 0.950324 27.3356 1.88366L26.6627 7.08366C26.6627 7.88366 25.8543 8.55032 25.0466 8.55032Z" fill="#0B93E2"/>
<path d="M32.3187 11.4837C31.914 11.4837 31.6452 11.3503 31.2411 11.0837C30.5676 10.5503 30.2983 9.48367 30.9712 8.68367L34.2031 4.55034C34.7422 3.88367 35.8192 3.61701 36.627 4.28367C37.301 4.81701 37.5698 5.88367 36.8968 6.68367L33.6646 10.817C33.3952 11.217 32.8567 11.4837 32.3187 11.4837Z" fill="#0B93E2"/>
<path d="M4.30931 31.2171C3.63651 31.2171 2.96305 30.8171 2.69318 30.1504C2.29012 29.3504 2.69318 28.2837 3.63652 28.0171L8.48385 26.0171C9.29171 25.6171 10.3693 26.0171 10.638 26.9504C11.0426 27.7504 10.638 28.8171 9.69638 29.0837L4.84798 31.0837C4.71358 31.2171 4.44424 31.2171 4.30931 31.2171Z" fill="#0B93E2"/>
<path d="M8.0794 21.4837C7.945 21.4837 7.945 21.4837 7.81006 21.4837L2.5586 20.817C1.61633 20.6837 0.942333 19.8837 1.07727 18.9503C1.2122 18.017 2.02007 17.3503 2.96273 17.4837L8.21434 18.1503C9.157 18.2837 9.82993 19.0837 9.69606 20.017C9.56113 20.9503 8.88767 21.4837 8.0794 21.4837Z" fill="#0B93E2"/>
<path d="M11.0427 14.2837C10.6381 14.2837 10.3694 14.1504 9.96514 13.8837L5.79075 10.6837C5.11728 10.1504 4.84808 9.08372 5.52141 8.28372C6.05994 7.61706 7.13754 7.35039 7.94541 8.01706L12.1194 11.2171C12.7933 11.7504 13.0621 12.8171 12.3886 13.6171C11.9855 14.0171 11.5809 14.2837 11.0427 14.2837Z" fill="#0B93E2"/>
<path d="M17.2363 9.48367C16.5634 9.48367 15.8899 9.08367 15.6202 8.41701L13.6009 3.61701C13.1967 2.81701 13.6009 1.75034 14.5435 1.48367C15.3514 1.08367 16.4285 1.48367 16.6978 2.41701L18.7175 7.21701C19.1217 8.01701 18.7175 9.08367 17.7754 9.35034C17.7754 9.48367 17.5055 9.48367 17.2363 9.48367Z" fill="#0B93E2"/>
<path d="M63.8287 63.217H48.2073C47.2647 63.217 46.4567 62.417 46.4567 61.4837C46.4567 60.5504 47.2647 59.7504 48.2073 59.7504H63.8287C70.562 59.4837 75.9473 54.017 75.9473 47.0837C75.9473 40.1504 70.1567 34.5504 63.0207 34.5504C63.0207 34.5504 63.0207 34.5504 62.886 34.5504H62.7513C62.2127 34.5504 61.8087 34.2837 61.4047 34.017C61.0007 33.7504 61.0007 33.0837 61.0007 32.6837C61.1353 31.8837 61.27 30.9504 61.27 30.1504C61.27 21.7504 54.1327 14.817 45.514 14.817C41.3407 14.817 37.4349 16.417 34.4729 19.217C33.1265 20.417 32.0489 21.8837 31.2412 23.4837C30.8371 24.2837 29.8948 24.5504 29.0871 24.2837C27.8745 23.7504 26.3932 23.4837 25.0469 23.4837C21.1417 23.4837 17.5057 25.7504 15.8901 29.217C15.3516 30.417 15.0823 31.7504 15.0823 33.0837V33.217V33.3504C15.0823 34.1504 14.5437 34.817 13.736 34.9504C7.8104 36.1504 3.36667 41.217 3.36667 47.217C3.36667 47.3504 3.36667 47.4837 3.36667 47.617C3.5016 54.417 9.42653 59.8837 16.2937 59.8837H27.7396C28.6823 59.8837 29.4907 60.6837 29.4907 61.617C29.4907 62.5504 28.6823 63.3504 27.7396 63.3504H16.2937C11.9855 63.3504 7.94533 61.7504 4.98227 58.817C1.88547 55.8837 0.134933 52.017 0 47.7504C0 47.617 0 47.4837 0 47.3504C0 40.2837 4.848 34.1504 11.7156 32.1504C11.8505 30.6837 12.2541 29.217 12.7932 27.8837C14.9475 23.217 19.6604 20.1504 24.9125 20.1504C26.2589 20.1504 27.6057 20.2837 28.8172 20.6837C29.6251 19.3504 30.7027 18.017 31.9141 16.817C35.55 13.4837 40.2631 11.617 45.246 11.617C55.7487 11.617 64.3673 20.017 64.3673 30.2837C64.3673 30.6837 64.3673 31.0837 64.3673 31.4837C72.85 32.2837 79.314 38.9504 79.314 47.217C79.314 55.8837 72.5807 62.9504 63.8287 63.217Z" fill="#0B93E2"/>
<path d="M29.4903 63.4838H38.1086C39.0507 63.4838 39.8586 64.2838 39.8586 65.2171V72.2838L46.591 58.8171H38.1086C37.1658 58.8171 36.3581 58.0171 36.3581 57.0838V48.6838L29.4903 63.4838ZM38.1086 81.0838C37.9737 81.0838 37.8387 81.0838 37.7043 81.0838C36.8966 80.9504 36.3581 80.2838 36.3581 79.4838V66.9504H26.7966C26.2586 66.9504 25.7201 66.6838 25.3153 66.1504C24.9122 65.6171 24.9122 65.0838 25.181 64.5504L36.3581 40.8171C36.6267 40.1504 37.4346 39.7504 38.2423 39.8838C39.0507 40.0171 39.5898 40.6838 39.5898 41.4838V55.6171H49.1497C49.6883 55.6171 50.2283 55.8838 50.631 56.4171C50.9003 56.9504 50.9003 57.4838 50.7657 58.0171L39.5898 80.1504C39.3201 80.6838 38.6471 81.0838 38.1086 81.0838Z" fill="#0B93E2"/>
<path d="M17.3711 70.2837C16.9675 70.817 16.1587 71.7503 16.1587 72.017C16.1587 72.6837 16.6978 73.217 17.3711 73.217C18.044 73.217 18.5831 72.6837 18.5831 72.017C18.4482 71.7503 17.7754 70.817 17.3711 70.2837ZM17.3711 76.5503C14.8123 76.5503 12.793 74.5503 12.793 72.017C12.793 70.417 13.8696 69.217 14.8123 68.017C15.2164 67.4837 15.6202 67.0837 15.8899 66.6837C16.1587 66.1503 16.6978 65.8837 17.3711 65.8837C17.9102 65.8837 18.4482 66.1503 18.8524 66.6837C19.1216 67.0837 19.5254 67.4837 19.9295 68.017C21.0071 69.217 21.9498 70.5503 21.9498 72.017C21.8148 74.5503 19.7946 76.5503 17.3711 76.5503Z" fill="#0B93E2"/>
<path d="M27.4706 76.9504C27.0665 77.4837 26.2588 78.4171 26.2588 78.6837C26.2588 79.3504 26.7968 79.8837 27.4706 79.8837C28.1436 79.8837 28.6821 79.3504 28.6821 78.6837C28.5478 78.4171 27.8744 77.4837 27.4706 76.9504ZM27.4706 83.2171C24.9124 83.2171 22.8921 81.2171 22.8921 78.6837C22.8921 77.0837 23.9697 75.8837 24.9124 74.6837C25.3154 74.1504 25.7202 73.7504 25.9894 73.3504C26.2588 72.8171 26.7968 72.5504 27.4706 72.5504C28.0092 72.5504 28.5478 72.8171 28.952 73.3504C29.2212 73.7504 29.6249 74.1504 30.0296 74.6837C31.1061 75.8837 32.0488 77.2171 32.0488 78.6837C31.914 81.2171 29.8946 83.2171 27.4706 83.2171Z" fill="#0B93E2"/>
<path d="M59.3843 70.2837C58.9803 70.817 58.1723 71.7503 58.1723 72.017C58.1723 72.6837 58.711 73.217 59.3843 73.217C60.0577 73.217 60.5963 72.6837 60.5963 72.017C60.5963 71.7503 59.923 70.817 59.3843 70.2837ZM59.3843 76.5503C56.8257 76.5503 54.8057 74.5503 54.8057 72.017C54.8057 70.417 55.883 69.217 56.8257 68.017C57.2297 67.4837 57.6337 67.0837 57.903 66.6837C58.1723 66.1503 58.711 65.8837 59.3843 65.8837C59.923 65.8837 60.4617 66.1503 60.8657 66.6837C61.135 67.0837 61.539 67.617 61.943 68.017C63.0203 69.217 63.963 70.5503 63.963 72.017C63.963 74.5503 61.943 76.5503 59.3843 76.5503Z" fill="#0B93E2"/>
<path d="M49.2847 76.9504C48.8807 77.4837 48.0727 78.4171 48.0727 78.6837C48.0727 79.3504 48.6127 79.8837 49.2847 79.8837C49.9581 79.8837 50.4967 79.3504 50.4967 78.6837C50.4967 78.4171 49.8234 77.4837 49.2847 76.9504ZM49.2847 83.2171C46.7274 83.2171 44.7061 81.2171 44.7061 78.6837C44.7061 77.0837 45.7847 75.8837 46.7274 74.6837C47.1301 74.1504 47.534 73.7504 47.8047 73.3504C48.0727 72.8171 48.6127 72.5504 49.2847 72.5504C49.8234 72.5504 50.3634 72.8171 50.7661 73.3504C51.0354 73.7504 51.4394 74.2837 51.8434 74.6837C52.9207 75.8837 53.8634 77.2171 53.8634 78.6837C53.8634 81.2171 51.8434 83.2171 49.2847 83.2171Z" fill="#0B93E2"/>
</svg>
