<svg width="70" height="52" viewBox="0 0 70 52" fill="none" xmlns="http://www.w3.org/2000/svg">
<path d="M52.5002 18.7142C56.9339 18.7142 60.9008 20.447 63.8176 23.335C66.7333 26.2229 68.4834 30.1506 68.4834 34.5403C68.4834 43.3197 61.2496 50.4819 52.3836 50.4819H17.3835C12.9504 50.4819 8.9835 48.7491 6.06711 45.8611C3.15073 42.9732 1.40039 39.0455 1.40039 34.6558C1.40039 30.2661 3.15073 26.3384 6.06711 23.4505C8.9835 20.5625 12.9504 18.8297 17.3835 18.8297C17.3835 9.24166 25.1999 1.5019 34.8836 1.5019C44.5664 1.5019 52.5002 9.12614 52.5002 18.7142Z" fill="#C2E3F7"/>
<path d="M34.9999 2.7725C26.1334 2.7725 18.8999 9.93466 18.8999 18.7141C18.8999 19.5227 18.2 20.2158 17.3833 20.2158C13.5337 20.2158 9.80004 21.7176 7.117 24.49C4.43338 27.0314 2.91685 30.728 2.91685 34.5402C2.91685 38.3523 4.43338 42.0489 7.23344 44.7058C10.0334 47.4783 13.6502 48.98 17.5002 48.98H52.5001C60.5494 48.98 67.0832 42.511 67.0832 34.5402C67.0832 30.728 65.5664 27.0314 62.7662 24.3745C59.966 21.6021 56.3503 20.1003 52.5001 20.1003C51.6833 20.1003 50.9833 19.4072 50.9833 18.5986C51.1 9.93466 43.8662 2.7725 34.9999 2.7725ZM52.5001 51.868H17.5002C12.8333 51.868 8.39984 50.0197 5.13377 46.7852C1.86679 43.5506 0 39.1609 0 34.5402C0 29.9194 1.86679 25.5297 5.13377 22.2952C8.05016 19.4072 11.8997 17.5589 16.1 17.3279C16.7998 7.62428 25.0838 4.19617e-05 34.9999 4.19617e-05C45.0329 4.19617e-05 53.2001 7.62428 53.9001 17.3279C58.1004 17.6744 61.9495 19.4072 64.8663 22.2952C68.1332 25.5297 70 29.9194 70 34.5402C70 44.1282 62.1828 51.868 52.5001 51.868Z" fill="#1E81CE"/>
<path d="M24.8506 18.7141C24.0338 18.7141 23.334 18.021 23.334 17.2124C23.334 15.3641 24.5004 12.9382 26.2508 10.8588C28.3509 8.43294 30.9171 7.04671 33.4843 7.04671C34.3001 7.04671 35.0005 7.73982 35.0005 8.54846C35.0005 9.35709 34.3001 10.0502 33.4843 10.0502C29.4005 10.0502 26.1339 15.2485 26.1339 17.3279C26.2508 18.021 25.5504 18.7141 24.8506 18.7141Z" fill="#1E81CE"/>
<path d="M39.3173 34.5402C38.6173 34.5402 38.0334 34.0781 37.917 33.385C37.6836 32.5763 38.2671 31.8832 38.9673 31.6522C43.7498 30.497 47.25 27.9556 49.3501 24.1435C50.8669 21.2555 50.9836 18.5986 50.9836 18.5986C50.9836 17.7899 51.6836 17.2123 52.5003 17.2123C53.317 17.2123 53.9004 17.9055 53.9004 18.7141C53.9004 18.8296 53.7837 21.9486 51.9169 25.4142C50.2835 28.6487 46.7833 32.8074 39.5507 34.5402C39.5507 34.5402 39.434 34.5402 39.3173 34.5402Z" fill="#1E81CE"/>
</svg>
