<svg width="70" height="57" viewBox="0 0 70 57" fill="none" xmlns="http://www.w3.org/2000/svg">
<path d="M9.66806 22.8349V22.7195C9.66806 18.3371 13.3943 14.6466 17.9382 14.6466C19.103 14.6466 20.2666 14.8773 21.3161 15.3386C23.2951 11.4175 27.6049 8.6496 32.3795 8.6496C36.6904 8.6496 40.5343 10.8408 42.7474 14.07C39.2518 14.9926 36.341 17.2991 34.7102 20.413C33.6619 19.9517 32.4971 19.721 31.3323 19.721C26.7896 19.721 23.0622 23.2962 23.0622 27.7939C23.0622 27.9093 23.0622 27.9093 23.0622 28.0246C18.403 28.9472 14.7921 32.9837 14.7921 37.8274C14.7921 39.6726 15.2592 41.4025 16.0745 42.9018H8.73621C4.42643 41.7485 1.39795 37.3661 1.39795 32.753C1.39795 27.9093 4.89236 23.8728 9.66806 22.8349C9.66806 22.9502 9.66806 22.9502 9.66806 22.8349Z" fill="#C2E3F7"/>
<path d="M60.4498 47.6301C60.4498 47.7455 60.4498 47.7455 60.4498 47.8608C60.3345 51.7819 57.0719 54.8958 53.228 54.8958C51.249 54.8958 34.8253 54.8958 32.8463 54.8958C29.0024 54.8958 25.741 51.8972 25.6245 48.0914C25.6245 47.9761 25.6245 47.8608 25.6245 47.6301C25.6245 43.5937 28.8859 40.4798 32.9616 40.4798C33.0792 40.4798 33.1946 40.4798 33.4275 40.4798C34.71 36.3281 38.5538 33.2142 43.2119 33.2142C47.8711 33.2142 51.7149 36.2127 52.9951 40.4798C53.1127 40.4798 53.2281 40.4798 53.4622 40.4798C57.1884 40.3645 60.4498 43.5937 60.4498 47.6301Z" fill="#C2E3F7"/>
<path d="M58.237 27.7938C58.1216 27.7938 58.1216 27.7938 58.004 27.7938C58.1216 27.1018 58.237 26.5252 58.237 25.8332C58.237 19.1442 52.6459 13.8392 45.8912 13.8392C44.8429 13.8392 43.7945 13.9545 42.8627 14.1852C39.3683 15.1078 36.4563 17.4143 34.8255 20.5282C33.7772 20.0669 32.6124 19.8362 31.4488 19.8362C26.906 19.8362 23.1786 23.4113 23.1786 27.9091C23.1786 28.0244 23.1786 28.0244 23.1786 28.1398C18.5205 29.0624 14.9097 33.0988 14.9097 37.9426C14.9097 39.7878 15.3744 41.5177 16.1898 43.017C17.4711 45.4388 19.5689 47.3994 22.2468 48.0914H25.7412C25.7412 47.976 25.7412 47.8607 25.7412 47.6301C25.7412 43.5936 29.0026 40.4798 33.0795 40.4798C33.1948 40.4798 33.3124 40.4798 33.5454 40.4798C34.8255 36.328 38.6694 33.2142 43.3286 33.2142C47.9867 33.2142 51.8305 36.2127 53.1129 40.4798C53.2283 40.4798 53.3459 40.4798 53.5777 40.4798C57.6546 40.4798 60.916 43.7089 60.916 47.6301C60.916 47.7454 60.916 47.7454 60.916 47.8607C65.5741 46.9381 68.952 42.7863 68.952 37.9426C68.4873 32.2915 63.9433 27.7938 58.237 27.7938Z" fill="#C2E3F7"/>
<path d="M63.0118 10.4948C63.2448 10.7255 63.4777 11.0715 63.4777 11.5328C63.4777 11.8788 63.3613 12.3401 63.0118 12.5707C62.7789 12.8014 62.4294 13.032 61.9635 13.032C61.1481 13.032 60.4492 12.3401 60.4492 11.5328C60.4492 11.1868 60.5657 10.7255 60.9151 10.4948C61.1481 10.2642 61.4975 10.0335 61.9635 10.0335C62.3129 10.1489 62.7789 10.2642 63.0118 10.4948Z" fill="#0B93E2"/>
<path d="M54.2779 29.2933C54.5108 29.524 54.7427 29.8699 54.7427 30.3313C54.7427 30.7926 54.6262 31.1385 54.2779 31.3692C54.0438 31.5999 53.6955 31.8305 53.2284 31.8305C52.413 31.8305 51.7153 31.1385 51.7153 30.3313C51.7153 29.9853 51.8306 29.524 52.1801 29.2933C52.413 29.0627 52.7625 28.832 53.2284 28.832C53.5778 28.832 54.0438 29.0627 54.2779 29.2933Z" fill="#0B93E2"/>
<path d="M46.9391 6.22775C47.1709 6.45841 47.405 6.80439 47.405 7.2657C47.405 7.72701 47.2885 8.07299 46.9391 8.30364C46.7061 8.5343 46.3555 8.76495 45.8908 8.76495C45.0754 8.76495 44.3765 8.07299 44.3765 7.38103C44.3765 7.03504 44.4929 6.57374 44.8424 6.34308C45.0754 6.11243 45.4248 5.88177 45.8908 5.88177C46.3555 5.88177 46.7061 5.9971 46.9391 6.22775Z" fill="#0B93E2"/>
<path d="M35.292 0.461336C35.525 0.69199 35.758 1.03797 35.758 1.49928C35.758 1.84526 35.6403 2.30657 35.292 2.53723C35.0579 2.76788 34.7097 2.99854 34.2426 2.99854C33.4272 2.99854 32.7295 2.30657 32.7295 1.49928C32.7295 1.1533 32.8459 0.69199 33.1942 0.461336C33.4272 0.230681 33.7767 2.69413e-05 34.2426 2.69413e-05C34.7097 2.69413e-05 35.0579 0.230681 35.292 0.461336Z" fill="#0B93E2"/>
<path d="M13.5118 6.22775C13.7447 6.45841 13.9766 6.80439 13.9766 7.2657C13.9766 7.72701 13.8612 8.07299 13.5118 8.30364C13.2788 8.5343 12.9294 8.76495 12.4635 8.76495C11.6481 8.76495 10.9492 8.07299 10.9492 7.38103C10.9492 7.03504 11.0656 6.57374 11.4151 6.34308C11.6481 6.11243 11.9964 5.88177 12.4635 5.88177C12.9294 5.88177 13.2788 5.9971 13.5118 6.22775Z" fill="#0B93E2"/>
<path d="M6.17392 14.8773C6.40689 15.1079 6.63985 15.4539 6.63985 15.9152C6.63985 16.2612 6.52337 16.7225 6.17392 16.9532C5.94096 17.1838 5.59154 17.4145 5.12562 17.4145C4.31025 17.4145 3.61133 16.7225 3.61133 15.9152C3.61133 15.5693 3.72897 15.1079 4.07725 14.8773C4.31022 14.6466 4.6597 14.416 5.12562 14.416C5.59154 14.416 5.94096 14.6466 6.17392 14.8773Z" fill="#0B93E2"/>
<path d="M53.2274 26.9866C52.4121 26.9866 51.8297 26.41 51.8297 25.6027C51.7144 20.8743 47.754 19.9517 47.6375 19.8363C46.8222 19.6057 46.3551 18.9137 46.5892 18.1064C46.8221 17.2991 47.521 16.8378 48.3353 17.0685C50.5484 17.5298 54.6252 19.9517 54.8582 25.4874C54.7417 26.2947 54.0428 26.9866 53.2274 26.9866Z" fill="#0B93E2"/>
<path d="M16.0744 44.401H8.73604C8.61956 44.401 8.5031 44.401 8.38662 44.401C3.49444 43.0171 0 38.1733 0 32.8683C0 27.7939 3.37908 23.4114 8.27011 21.9122C8.73604 17.1838 12.9293 13.378 17.938 13.378C18.8687 13.378 19.8006 13.4933 20.6159 13.724C23.1785 9.80283 27.4883 7.38096 32.3793 7.38096C37.0385 7.38096 41.3483 9.68751 43.9109 13.378C44.0273 13.6086 44.1438 13.9546 44.1438 14.1853C44.1438 14.9926 43.4449 15.6845 42.6296 15.6845C42.2801 15.6845 41.9307 15.5692 41.5813 15.3385C41.4648 15.2232 41.4648 15.2232 41.3483 15.1079C39.3681 12.1094 35.8748 10.2641 32.1475 10.2641C27.9542 10.2641 24.2268 12.5707 22.3631 16.1458C22.0137 16.8378 21.1983 17.0684 20.4994 16.8378C19.5687 16.4918 18.7534 16.2612 17.705 16.2612C13.9765 16.2612 10.9492 19.2597 10.9492 22.8348V22.9501V23.0655C10.9492 23.7574 10.4833 24.3341 9.78322 24.4494C5.70755 25.2567 2.67905 28.8318 2.67905 32.8683C2.67905 36.9047 5.24162 40.5952 8.73604 41.6331H15.9578C16.7721 41.6331 17.471 42.3251 17.471 43.1324C17.471 43.9397 16.8897 44.401 16.0744 44.401Z" fill="#0B93E2"/>
<path d="M37.3879 17.7604C36.9232 17.7604 36.4561 17.5297 36.2231 17.0684C34.943 15.2232 33.0793 14.7619 32.9616 14.7619C32.1474 14.5312 31.6815 13.8392 31.9145 13.032C32.1474 12.2247 32.8464 11.7634 33.6617 11.994C33.777 11.994 36.6902 12.686 38.6692 15.4538C39.1363 16.1458 38.9033 16.9531 38.3209 17.4144C37.9703 17.645 37.6209 17.7604 37.3879 17.7604Z" fill="#0B93E2"/>
<path d="M25.6245 49.4755H22.1313C22.0136 49.4755 21.8971 49.4755 21.7807 49.4755C18.8687 48.6682 16.3072 46.5923 14.7918 43.7091C13.8611 41.8639 13.394 39.9033 13.394 37.9427C13.394 32.8683 16.772 28.4859 21.6642 26.9867C22.1312 22.2582 26.3234 18.4524 31.332 18.4524C32.2639 18.4524 33.1946 18.5678 34.01 18.7984C35.8748 15.7999 38.9033 13.724 42.3965 12.8014C43.5613 12.5707 44.6097 12.3401 45.7745 12.3401C53.4622 12.3401 59.6345 18.3371 59.6345 25.8334C59.6345 26.064 59.6345 26.2947 59.6345 26.5253C65.4585 27.2173 70.0001 32.0611 70.0001 37.9427C70.0001 43.4784 66.1563 48.2069 60.7993 49.3601C59.984 49.4755 59.285 49.0142 59.0521 48.2069C58.9368 47.3996 59.4015 46.7076 60.2169 46.477C64.1772 45.6697 67.0892 42.0945 67.0892 37.9427C67.0892 33.2143 63.1289 29.2932 58.2367 29.2932H58.1214C57.6543 29.2932 57.306 29.0625 56.9566 28.8319C56.7236 28.4859 56.606 28.0246 56.606 27.6786C56.7236 27.102 56.7236 26.5253 56.7236 25.9487C56.7236 20.067 51.8303 15.3386 45.7745 15.3386C44.8426 15.3386 43.9108 15.4539 43.0954 15.6846C39.9505 16.4919 37.3879 18.4524 35.9901 21.2203C35.6407 21.9123 34.8253 22.1429 34.1276 21.9123C33.3122 21.5663 32.3792 21.3356 31.332 21.3356C27.6047 21.3356 24.5762 24.3341 24.5762 27.9093C24.5762 27.9093 24.5762 27.9093 24.5762 28.0246V28.1399C24.5762 28.8319 24.1102 29.4085 23.4114 29.6392C19.3357 30.4465 16.3072 34.0216 16.3072 38.0581C16.3072 39.5573 16.6555 41.1719 17.3555 42.5558C18.4027 44.6317 20.2664 46.2463 22.363 46.8229H25.6245C26.4399 46.8229 27.1388 47.5149 27.1388 48.3222C27.0223 48.7835 26.3234 49.4755 25.6245 49.4755Z" fill="#0B93E2"/>
<path d="M32.8459 41.8639C29.5833 41.8639 27.0219 44.4011 27.0219 47.6302C27.0219 47.7456 27.0219 47.8609 27.0219 47.9762C27.2548 50.9747 29.7009 53.3966 32.8459 53.3966H53.2277C56.3727 53.3966 58.9364 50.9747 59.0517 47.7456V47.6302C59.0517 44.4011 56.4903 41.8639 53.2277 41.8639C53.1124 41.8639 52.9947 41.8639 52.8794 41.8639C52.1794 41.8639 51.597 41.5179 51.364 40.8259C50.3169 37.1355 46.8225 34.5983 42.9786 34.5983C39.1359 34.5983 35.6403 37.1355 34.592 40.8259C34.359 41.5179 33.7766 41.8639 33.0789 41.8639C33.0789 41.8639 32.9612 41.8639 32.8459 41.8639ZM53.2277 56.2798H32.8459C28.1867 56.2798 24.3428 52.7046 24.1099 48.0916C24.1099 47.9762 24.1099 47.7456 24.1099 47.6302C24.1099 43.0172 27.7208 39.3267 32.2635 38.9807C33.0789 37.0201 34.359 35.4056 35.9898 34.137C37.9699 32.6377 40.416 31.8304 42.9786 31.8304C45.5412 31.8304 47.9861 32.6377 49.9663 34.137C51.597 35.4056 52.9948 37.1355 53.6948 38.9807C58.2364 39.3267 61.8473 43.0172 61.8473 47.6302C61.8473 47.7456 61.8473 47.8609 61.8473 47.8609C61.7308 50.1674 60.799 52.2433 59.1682 53.7426C57.654 55.3572 55.5573 56.2798 53.2277 56.2798Z" fill="#0B93E2"/>
<path d="M47.6385 43.709C47.0561 43.709 46.4737 43.2477 46.2408 42.671C45.7748 41.2871 44.4935 40.3645 43.0958 40.3645C42.2804 40.3645 41.5815 39.6725 41.5815 38.8652C41.5815 38.0579 42.2804 37.366 43.0958 37.366C45.7748 37.366 48.2209 39.2112 49.0363 41.7484C49.2693 42.5557 48.8022 43.363 48.1045 43.5937C47.8715 43.709 47.755 43.709 47.6385 43.709Z" fill="#0B93E2"/>
</svg>
