<svg width="84" height="83" viewBox="0 0 84 83" fill="none" xmlns="http://www.w3.org/2000/svg">
<path d="M41.9126 24.0495C32.1374 24.0495 24.2876 31.8215 24.2876 41.5C24.2876 51.0318 32.1374 58.8039 41.9126 58.8039C51.5383 58.8039 59.3881 51.0318 59.3881 41.3534C59.5377 31.9682 51.5383 24.0495 41.9126 24.0495Z" fill="#C2E3F7"/>
<path d="M41.9124 31.3818C47.5406 31.3818 52.132 35.9277 52.132 41.5001C52.132 47.0726 47.5406 51.6185 41.9124 51.6185C36.2843 51.6185 31.6929 47.0726 31.6929 41.5001C31.6929 35.9277 36.2843 31.3818 41.9124 31.3818Z" fill="#C2E3F7"/>
<path d="M41.9121 25.9559C33.1737 25.9559 26.214 32.9948 26.214 41.5001C26.214 50.0054 33.3232 57.0442 41.9121 57.0442C50.501 57.0442 57.6103 50.0054 57.6103 41.5001C57.6103 32.9948 50.6506 25.9559 41.9121 25.9559ZM41.9121 60.7103C31.2482 60.7103 22.5098 52.0584 22.5098 41.5001C22.5098 30.9418 31.2482 22.2898 41.9121 22.2898C52.5746 22.2898 61.313 30.9418 61.313 41.5001C61.313 52.0584 52.5746 60.7103 41.9121 60.7103Z" fill="#0B93E2"/>
<path d="M41.9124 33.288C37.321 33.288 33.6183 36.954 33.6183 41.5C33.6183 46.0459 37.321 49.712 41.9124 49.712C46.5038 49.712 50.2051 46.0459 50.2051 41.5C50.2051 36.954 46.5038 33.288 41.9124 33.288ZM41.9124 53.3781C35.2475 53.3781 29.9155 48.0989 29.9155 41.5C29.9155 34.901 35.2475 29.6219 41.9124 29.6219C48.5773 29.6219 53.9093 34.901 53.9093 41.5C53.9093 48.0989 48.5773 53.3781 41.9124 53.3781Z" fill="#0B93E2"/>
<path d="M41.9123 19.0636C40.8755 19.0636 39.9854 18.1838 39.9854 17.1573V1.90638C39.9854 0.879877 40.8755 1.90735e-05 41.9123 1.90735e-05C42.949 1.90735e-05 43.8362 0.879877 43.8362 1.90638V17.3039C43.8362 18.3304 42.949 19.0636 41.9123 19.0636Z" fill="#0B93E2"/>
<path d="M59.2395 26.2493C58.7952 26.2493 58.3508 26.1026 57.9065 25.6627C57.1659 24.9295 57.1659 23.7563 57.9065 23.0231L68.8666 12.1715C69.6072 11.4383 70.7906 11.4383 71.5311 12.1715C72.2717 12.9047 72.2717 14.0779 71.5311 14.8111L60.5725 25.6627C60.1282 25.956 59.6838 26.2493 59.2395 26.2493Z" fill="#0B93E2"/>
<path d="M81.9003 43.4064H66.3488C65.3121 43.4064 64.4233 42.5265 64.4233 41.5C64.4233 40.4735 65.3121 39.5936 66.3488 39.5936H81.9003C82.9356 39.5936 83.8243 40.4735 83.8243 41.5C83.8243 42.5265 82.9356 43.4064 81.9003 43.4064Z" fill="#0B93E2"/>
<path d="M70.1996 71.4153C69.7538 71.4153 69.311 71.2687 68.8666 70.8287L57.9065 59.9771C57.1659 59.2439 57.1659 58.0708 57.9065 57.3376C58.647 56.6044 59.8319 56.6044 60.5725 57.3376L71.5311 68.1892C72.2717 68.9224 72.2717 70.0955 71.5311 70.8287C71.2349 71.122 70.6439 71.4153 70.1996 71.4153Z" fill="#0B93E2"/>
<path d="M41.9123 83C40.8755 83 39.9854 82.1201 39.9854 81.0936V65.6961C39.9854 64.6696 40.8755 63.7897 41.9123 63.7897C42.949 63.7897 43.8362 64.6696 43.8362 65.6961V81.0936C43.8362 82.1201 42.949 83 41.9123 83Z" fill="#0B93E2"/>
<path d="M13.6248 71.4153C13.1804 71.4153 12.7361 71.2687 12.2917 70.8287C11.5512 70.0955 11.5512 68.9224 12.2917 68.1892L23.2504 57.3376C23.9909 56.6044 25.1773 56.6044 25.9179 57.3376C26.6584 58.0708 26.6584 59.2439 25.9179 59.9771L14.9577 70.8287C14.5134 71.122 14.0691 71.4153 13.6248 71.4153Z" fill="#0B93E2"/>
<path d="M17.4755 43.4064H1.92398C0.887208 43.4064 0 42.5265 0 41.5C0 40.4735 0.887208 39.5936 1.92398 39.5936H17.4755C18.5122 39.5936 19.3994 40.4735 19.3994 41.5C19.3994 42.5265 18.5122 43.4064 17.4755 43.4064Z" fill="#0B93E2"/>
<path d="M24.5848 26.2493C24.1405 26.2493 23.6962 26.1026 23.2504 25.6627L12.2917 14.8111C11.5512 14.0779 11.5512 12.9047 12.2917 12.1715C13.0323 11.4383 14.2172 11.4383 14.9577 12.1715L25.9179 23.0231C26.6584 23.7563 26.6584 24.9295 25.9179 25.6627C25.4736 25.956 25.0277 26.2493 24.5848 26.2493Z" fill="#0B93E2"/>
<path d="M48.2808 19.9435C48.1313 19.9435 47.9846 19.9435 47.8365 19.9435C46.7997 19.6503 46.2073 18.6238 46.5035 17.7439L48.4275 10.2651C48.7237 9.23859 49.7604 8.65202 50.6505 8.9453C51.6858 9.23859 52.2783 10.2651 51.9821 11.145L50.0581 18.6238C49.7604 19.357 49.0214 19.9435 48.2808 19.9435Z" fill="#0B93E2"/>
<path d="M54.2055 22.4364C53.9093 22.4364 53.6115 22.2898 53.3153 22.1431C52.4281 21.7032 52.1319 20.53 52.5748 19.6502L56.4257 12.9046C56.87 12.0247 58.0549 11.7314 58.9435 12.1714C59.8322 12.6113 60.1284 13.7845 59.684 14.6643L55.8332 21.4099C55.3889 21.9965 54.7964 22.4364 54.2055 22.4364Z" fill="#0B93E2"/>
<path d="M63.0907 31.235C62.4982 31.235 61.7577 30.9417 61.4615 30.3551C61.0171 29.4753 61.3133 28.3021 62.202 27.8622L69.0136 24.0495C69.9037 23.6095 71.0871 23.9028 71.5314 24.7827C71.9772 25.6625 71.6811 26.8357 70.7909 27.2756L63.9793 31.0883C63.6831 31.0883 63.3869 31.235 63.0907 31.235Z" fill="#0B93E2"/>
<path d="M65.608 37.1006C64.7194 37.1006 63.9789 36.5141 63.8308 35.7808C63.5346 34.7543 64.1255 33.7278 65.1622 33.5812L72.7173 31.6748C73.7541 31.3815 74.7908 31.9681 74.9375 32.9946C75.2352 34.0211 74.6413 35.0476 73.6045 35.1943L66.0524 37.1006C65.9043 37.1006 65.7561 37.1006 65.608 37.1006Z" fill="#0B93E2"/>
<path d="M73.0136 51.6185C72.864 51.6185 72.7174 51.6185 72.5678 51.6185L65.0157 49.7122C63.9789 49.4189 63.3865 48.3924 63.6827 47.5125C63.9789 46.486 65.0157 45.8994 65.9043 46.1927L73.458 48.0991C74.4947 48.3924 75.0857 49.4189 74.7909 50.2987C74.6413 51.0319 73.9008 51.6185 73.0136 51.6185Z" fill="#0B93E2"/>
<path d="M69.9037 59.3906C69.6075 59.3906 69.3113 59.244 69.0136 59.0973L62.202 55.2846C61.3133 54.8447 61.0171 53.6715 61.4615 52.7917C61.9058 51.9118 63.0907 51.6185 63.9793 52.0584L70.7909 55.8712C71.6811 56.3111 71.9772 57.4842 71.5314 58.3641C71.0871 58.9507 70.4947 59.3906 69.9037 59.3906Z" fill="#0B93E2"/>
<path d="M58.0549 70.9752C57.4624 70.9752 56.7234 70.6819 56.4257 70.0954L52.5748 63.3498C52.1319 62.4699 52.4281 61.2968 53.3153 60.8568C54.2054 60.4169 55.3889 60.7102 55.8332 61.5901L59.684 68.3356C60.1284 69.2155 59.8322 70.3886 58.9435 70.8286C58.6473 70.9752 58.3511 70.9752 58.0549 70.9752Z" fill="#0B93E2"/>
<path d="M50.2047 74.2014C49.3175 74.2014 48.5771 73.6148 48.4275 72.8816L46.5035 65.4028C46.2073 64.3763 46.7997 63.3498 47.8365 63.2031C48.8718 62.9099 49.9085 63.4964 50.0581 64.5229L51.9821 72.0017C52.2783 73.0282 51.6858 74.0547 50.6505 74.2014C50.501 74.2014 50.3543 74.2014 50.2047 74.2014Z" fill="#0B93E2"/>
<path d="M33.6183 74.2014C33.4702 74.2014 33.3236 74.2014 33.174 74.2014C32.1372 73.9081 31.5463 72.8816 31.8425 72.0017L33.7665 64.5229C34.0627 63.4964 35.0994 62.9099 35.9881 63.2031C37.0249 63.4964 37.6173 64.5229 37.3211 65.4028L35.3956 72.8816C35.0994 73.6148 34.3603 74.2014 33.6183 74.2014Z" fill="#0B93E2"/>
<path d="M25.7682 70.9752C25.4735 70.9752 25.1772 70.8286 24.881 70.6819C23.9909 70.242 23.6961 69.0689 24.1405 68.189L27.9913 61.4434C28.4356 60.5636 29.619 60.2703 30.5091 60.7102C31.3963 61.1501 31.6926 62.3233 31.2482 63.2031L27.3974 69.9487C27.1012 70.6819 26.3607 70.9752 25.7682 70.9752Z" fill="#0B93E2"/>
<path d="M13.9208 59.3906C13.3283 59.3906 12.5878 59.0973 12.2915 58.5107C11.8472 57.6309 12.1435 56.4577 13.0321 56.0178L19.8452 52.2051C20.7338 51.7651 21.9172 52.0584 22.363 52.9383C22.8073 53.8182 22.5097 54.9913 21.6225 55.4312L14.9575 59.0973C14.6613 59.244 14.3651 59.3906 13.9208 59.3906Z" fill="#0B93E2"/>
<path d="M10.8106 51.6185C9.92343 51.6185 9.18286 51.0319 9.03329 50.2987C8.73707 49.2722 9.32948 48.2457 10.3662 48.0991L17.9199 46.1927C18.9566 45.8994 19.9934 46.486 20.1415 47.5125C20.4363 48.539 19.8453 49.5655 18.8085 49.7122L11.2549 51.6185C11.1068 51.6185 10.9602 51.6185 10.8106 51.6185Z" fill="#0B93E2"/>
<path d="M18.2167 37.1006C18.0686 37.1006 17.9204 37.1006 17.7723 37.1006L10.2202 35.1943C9.1834 34.901 8.58948 33.8745 8.8857 32.9946C9.18339 31.9681 10.2202 31.3815 11.1074 31.6748L18.661 33.5812C19.6977 33.8745 20.2901 34.901 19.9939 35.7808C19.8458 36.5141 19.1053 37.1006 18.2167 37.1006Z" fill="#0B93E2"/>
<path d="M20.7338 31.235C20.4361 31.235 20.1414 31.0883 19.8452 30.9417L13.0321 27.129C12.1435 26.689 11.8472 25.5159 12.2915 24.636C12.7359 23.7562 13.9208 23.4629 14.8109 23.9028L21.6225 27.7155C22.5097 28.1555 22.8073 29.3286 22.363 30.2085C22.0668 30.9417 21.3263 31.235 20.7338 31.235Z" fill="#0B93E2"/>
<path d="M29.619 22.4364C29.0281 22.4364 28.2875 22.1431 27.9913 21.5565L24.1405 14.811C23.6961 13.9311 23.9909 12.758 24.881 12.318C25.7682 11.8781 26.9545 12.1714 27.3974 13.0512L31.2482 19.7968C31.6926 20.6767 31.3963 21.8498 30.5091 22.2898C30.3596 22.2898 29.9153 22.4364 29.619 22.4364Z" fill="#0B93E2"/>
<path d="M35.5437 19.9435C34.6551 19.9435 33.9146 19.357 33.7665 18.6238L31.8425 11.145C31.5463 10.1184 32.1372 9.09195 33.174 8.9453C34.2108 8.65202 35.2475 9.23859 35.3956 10.2651L37.3211 17.7439C37.6173 18.7704 37.0249 19.7969 35.9881 19.9435C35.84 19.9435 35.6918 19.9435 35.5437 19.9435Z" fill="#0B93E2"/>
</svg>
