<svg width="68" height="80" viewBox="0 0 68 80" fill="none" xmlns="http://www.w3.org/2000/svg">
<path d="M33.6561 29.2001C36.6188 29.2001 39.3121 28.5334 41.8708 27.4668C39.5815 32.1334 35.5415 35.7334 30.6935 37.4668C30.1548 37.6001 29.6161 37.8668 28.9428 38.0001C27.7308 38.2668 26.3855 38.4001 25.1735 38.5334C24.9041 38.5334 24.7695 38.5334 24.5001 38.5334C24.3655 38.5334 24.0961 38.5334 23.9615 38.5334C17.7668 38.4001 12.3801 35.3334 9.01344 30.6668C6.59078 27.4668 5.24414 23.6001 5.24414 19.3334C5.24414 11.6001 9.82145 4.93345 16.2854 1.86678C15.0734 4.40012 14.4001 7.20012 14.4001 10.1334C14.4001 14.5334 15.8815 18.6668 18.4401 21.8668C18.4401 21.8668 18.4401 21.8668 18.4401 22.0001C19.9215 24.0001 21.9415 25.6001 24.0961 26.9334C26.7895 28.2668 30.1548 29.2001 33.6561 29.2001Z" fill="white"/>
<path d="M54.6627 73.8668C55.74 75.8668 54.2587 78.4001 51.8347 78.4001C49.5454 78.4001 48.0654 76.0001 49.008 73.8668L51.8347 68.4001L54.6627 73.8668Z" fill="white"/>
<path d="M36.2147 73.8668C37.292 75.8668 35.676 78.4001 33.3867 78.4001C31.0973 78.4001 29.616 76.0001 30.5587 73.8668L33.3867 68.4001L36.2147 73.8668Z" fill="white"/>
<path d="M17.6321 73.8668C18.7095 75.8668 17.0935 78.4001 14.8041 78.4001C12.5148 78.4001 11.0335 76.0001 11.9761 73.8668L14.8041 68.4001L17.6321 73.8668Z" fill="white"/>
<path d="M23.9613 26.5333C21.8067 25.3333 19.9213 23.5999 18.3053 21.5999C20.864 15.7333 26.7893 11.5999 33.656 11.5999C42.8133 11.5999 50.3547 18.9333 50.3547 28.1333C54.528 28.1333 58.4333 29.8666 61.1267 32.5333C63.9547 35.1999 65.5707 39.0666 65.5707 43.1999C65.5707 51.5999 58.7026 58.2666 50.2186 58.2666H16.9587C12.784 58.2666 8.87999 56.5333 6.18665 53.8666C3.35732 51.1999 1.74268 47.3333 1.74268 43.1999C1.74268 37.8666 4.57068 33.1999 8.74534 30.5333C12.1107 35.1999 17.632 38.1333 23.8267 38.3999C23.9613 38.3999 24.2307 38.3999 24.3653 38.3999C24.6347 38.3999 24.7693 38.3999 25.0387 38.3999C26.3853 38.3999 27.5973 38.1333 28.808 37.8666C29.3467 37.7333 30.0213 37.5999 30.5587 37.3333C35.5413 35.5999 39.5813 31.9999 41.8707 27.3333C41.8707 27.3333 41.8707 27.3333 41.8707 27.1999C39.312 28.3999 36.6187 29.0666 33.656 29.0666C30.1547 29.0666 26.7893 28.1333 23.9613 26.5333Z" fill="#9BC9FF"/>
<path d="M50.3548 60H16.9589C12.3802 60 8.20687 58.2667 4.97353 55.0667C1.74287 51.8667 -0.0078125 47.7333 -0.0078125 43.2C-0.0078125 37.4667 2.95486 32.1333 7.80153 29.0667C8.60953 28.5333 9.55219 28.8 10.0909 29.4667C13.3229 33.8667 18.4402 36.4 23.8269 36.5333C24.7695 36.5333 25.4415 37.3333 25.4415 38.2667C25.4415 39.2 24.6349 39.8667 23.6909 39.8667C17.7669 39.7333 12.2469 37.0667 8.3402 32.6667C5.2442 35.3333 3.35752 39.2 3.35752 43.2C3.35752 46.8 4.84019 50.1333 7.39753 52.6667C9.95619 55.2 13.3229 56.6667 16.9589 56.6667H50.3548C57.8948 56.6667 63.9548 50.6667 63.9548 43.2C63.9548 39.6 62.4722 36.2667 59.9135 33.7333C57.3575 31.2 53.9895 29.7333 50.3548 29.7333C49.4122 29.7333 48.6029 28.9333 48.6029 28C48.6029 27.0667 49.4122 26.2667 50.3548 26.2667C54.9322 26.2667 59.1069 28 62.3389 31.2C65.5709 34.4 67.3202 38.5333 67.3202 43.0667C67.3202 52.5333 59.6455 60 50.3548 60Z" fill="#1E81CE"/>
<path d="M25.0389 40C24.0962 40 23.4229 39.3333 23.4229 38.4C23.4229 37.4667 24.0962 36.6667 25.0389 36.6667C26.2495 36.6667 27.3282 36.5333 28.5402 36.1333C29.4815 35.8667 30.2895 36.5333 30.5589 37.3333C30.8295 38.2667 30.1548 39.0667 29.3468 39.3333C28.0002 39.7333 26.5202 40 25.0389 40C25.1735 40 25.1735 40 25.0389 40Z" fill="#1E81CE"/>
<path d="M30.6934 38.9333C30.0214 38.9333 29.3467 38.5333 29.0787 37.8667C28.8081 36.9333 29.2134 36 30.1547 35.7333C33.252 34.6667 35.9454 32.8 37.9654 30.4C36.6187 30.6667 35.1374 30.8 33.6561 30.8C29.8854 30.8 26.2494 29.8667 23.1534 28C22.3454 27.6 22.076 26.5334 22.48 25.7334C22.884 24.9334 23.9614 24.6667 24.7694 25.0667C27.4627 26.6667 30.5587 27.4667 33.6561 27.4667C36.2147 27.4667 38.7734 26.9334 41.1961 25.8667C41.8707 25.6 42.544 25.7334 43.0814 26.1334C43.6214 26.6667 43.7547 27.3334 43.4867 28C41.0627 33.0667 36.6187 37.0667 31.2321 38.8C30.9641 38.9333 30.8294 38.9333 30.6934 38.9333Z" fill="#1E81CE"/>
<path d="M23.9616 28.1333C22.8843 28.1333 22.2109 27.3333 22.2109 26.4C22.4803 22.6666 26.9243 16.8 32.1749 16.8C33.1176 16.8 33.9256 17.6 33.9256 18.5333C33.9256 19.4666 33.1176 20.2666 32.1749 20.2666C28.5403 20.2666 25.7123 24.8 25.5776 26.6666C25.5776 27.4666 24.7696 28.1333 23.9616 28.1333Z" fill="#1E81CE"/>
<path d="M23.9616 28.2666C23.8269 28.2666 23.8269 28.2666 23.9616 28.2666C22.8843 28.1333 22.2109 27.3333 22.2109 26.3999C22.2109 25.4666 23.0189 24.7999 23.9616 24.7999C24.9043 24.7999 25.5776 25.5999 25.5776 26.5333C25.5776 27.5999 24.7696 28.2666 23.9616 28.2666Z" fill="#1E81CE"/>
<path d="M37.8309 43.4666C37.0229 43.4666 36.3495 42.9332 36.2148 42.1332C35.9455 41.1999 36.6189 40.3999 37.4269 40.1332C48.0655 37.5999 48.6029 28.6666 48.6029 27.9999C48.6029 19.8666 41.8709 13.1999 33.6562 13.1999C28.0002 13.1999 22.7495 16.3999 20.3255 21.3332C21.6722 22.7999 23.1535 23.9999 24.9042 25.0666C25.7122 25.4666 25.9815 26.5332 25.5775 27.3332C25.1735 28.1332 24.0962 28.3999 23.2882 27.9999C20.8642 26.6666 18.8442 24.7999 17.0935 22.6666C16.6895 22.1332 16.6895 21.5999 16.8242 21.0666V20.9332C19.7869 14.2666 26.3855 9.99988 33.6562 9.99988C43.7549 9.99988 51.9695 18.1332 51.9695 28.1332C51.9695 28.2666 51.8349 31.1999 50.0842 34.6666C48.4682 37.7332 45.1029 41.8666 38.1002 43.4666C38.1002 43.4666 37.9655 43.4666 37.8309 43.4666Z" fill="#1E81CE"/>
<path d="M13.0534 5.6C9.14808 8.93334 6.72409 13.8667 6.72409 19.0667C6.72409 22.8 7.93742 26.4 10.0908 29.4667C13.3228 33.8667 18.3054 36.4 23.8268 36.6667C23.9614 36.6667 24.2308 36.6667 24.3654 36.6667C24.6348 36.6667 24.7694 36.6667 25.0388 36.6667C26.2494 36.6667 27.4628 36.5333 28.5401 36.1333C29.0788 36 29.6161 35.8667 30.1548 35.7333C33.2521 34.6667 35.9454 32.8 37.9654 30.4C36.6188 30.6667 35.1374 30.8 33.6561 30.8C29.8854 30.8 26.2494 29.8667 23.1534 28C20.7294 26.6667 18.7094 24.8 17.0934 22.6667C14.2654 18.9333 12.7841 14.5333 12.7841 9.86667C12.6494 8.4 12.7841 6.93334 13.0534 5.6ZM24.3654 40C24.0961 40 23.9614 40 23.6908 40C17.2281 39.8667 11.3028 36.6667 7.39743 31.4667C4.70543 27.8667 3.35742 23.6 3.35742 19.0667C3.35742 15.0667 4.57076 11.0667 6.72409 7.73334C8.88009 4.4 11.8414 1.86667 15.4774 0.133336C16.1508 -0.133331 16.8241 2.38419e-06 17.3628 0.400002C17.9014 0.933336 18.0361 1.6 17.6321 2.26667C16.5548 4.66667 15.8814 7.2 15.8814 9.73334C15.8814 13.6 17.0934 17.3333 19.5174 20.5333C20.8641 22.4 22.6148 23.8667 24.6348 24.9333C27.3281 26.5333 30.4241 27.3333 33.5214 27.3333C36.2148 27.3333 38.6388 26.8 41.0628 25.6C41.7361 25.3333 42.4094 25.4667 42.9481 25.8667C43.4867 26.4 43.6214 27.0667 43.2174 27.7333V27.8667C40.7934 32.9333 36.3494 36.8 30.9641 38.6667C30.2894 38.9333 29.7508 39.0667 29.0788 39.2C27.7308 39.4667 26.3854 39.7333 24.9041 39.7333C24.9041 40 24.6348 40 24.3654 40Z" fill="#1E81CE"/>
<path d="M51.9695 72L50.6241 74.5333C50.3548 75.2 50.6241 75.7333 50.6241 75.8667C50.7575 76.1333 51.1615 76.5333 51.8348 76.5333C52.5095 76.5333 52.9135 76 53.0468 75.8667C53.1828 75.6 53.4508 75.0667 53.0468 74.5333L51.9695 72ZM51.9695 80C50.3548 80 48.7388 79.2 47.9295 77.7333C46.9868 76.2667 46.9868 74.5333 47.6601 73.0667L50.4881 67.6C50.7575 67.0667 51.2975 66.6667 51.9695 66.6667C52.6428 66.6667 53.1828 67.0667 53.4508 67.6L56.2788 73.0667C57.0868 74.5333 56.9521 76.2667 56.0095 77.7333C55.2015 79.2 53.5855 80 51.9695 80Z" fill="#1E81CE"/>
<path d="M33.3867 72L32.0401 74.5333C31.7707 75.2 32.0401 75.7333 32.0401 75.8667C32.1747 76.1333 32.58 76.5333 33.252 76.5333C33.9254 76.5333 34.3294 76 34.464 75.8667C34.5987 75.6 34.868 75.0667 34.464 74.5333L33.3867 72ZM33.3867 80C31.7707 80 30.1547 79.2 29.3467 77.7333C28.4054 76.2667 28.4054 74.5333 29.0787 73.0667L31.9054 67.6C32.1747 67.0667 32.7134 66.6667 33.3867 66.6667C34.06 66.6667 34.5987 67.0667 34.8681 67.6L37.696 73.0667C38.504 74.5333 38.3694 76.2667 37.4267 77.7333C36.6187 79.2 35.1374 80 33.3867 80Z" fill="#1E81CE"/>
<path d="M14.939 72L13.5923 74.5333C13.323 75.2 13.5923 75.7333 13.5923 75.8667C13.727 76.1333 14.131 76.5333 14.8043 76.5333C15.4777 76.5333 15.8816 76 16.0163 75.8667C16.151 75.6 16.4203 75.0667 16.0163 74.5333L14.939 72ZM14.939 80C13.323 80 11.707 79.2 10.899 77.7333C9.95631 76.2667 9.95631 74.5333 10.631 73.0667L13.4576 67.6C13.727 67.0667 14.2657 66.6667 14.939 66.6667C15.6123 66.6667 16.151 67.0667 16.4203 67.6L19.2483 73.0667C20.0563 74.5333 19.9217 76.2667 18.979 77.7333C18.171 79.2 16.555 80 14.939 80Z" fill="#1E81CE"/>
</svg>
