<svg width="73" height="78" viewBox="0 0 73 78" fill="none" xmlns="http://www.w3.org/2000/svg">
<path d="M16.804 54.1333C11.8213 52.8 8.32129 47.7333 8.32129 42.4C8.32129 36.8 12.3599 32.1333 17.8813 31.0666C17.8813 30.9333 17.8813 30.9333 17.8813 30.8C17.8813 29.8666 18.016 29.0666 18.2853 28.1333C18.42 27.8666 18.42 27.6 18.5546 27.4666C18.6893 27.2 18.6893 27.0666 18.824 26.8C19.228 26.1333 19.632 25.4666 20.1706 24.8C21.9213 22.8 24.3453 21.6 27.1733 21.4666C27.3066 21.4666 27.3066 21.4666 27.4413 21.4666C28.7893 21.4666 30.1346 21.7333 31.3466 22.2666C33.6359 17.7333 38.6186 14.5333 44.1386 14.5333C52.084 14.5333 58.4133 20.8 58.4133 28.4C58.4133 29.2 58.2786 30 58.2786 30.6666H58.4133C65.0119 30.6666 70.3986 35.8666 70.3986 42.2666C70.3986 48.5333 65.5506 53.8666 59.0866 54H54.3733L16.804 54.1333Z" fill="#C2E3F7"/>
<path d="M61.78 65.8667C61.78 67.4667 60.568 68.6667 58.952 68.6667C57.336 68.6667 56.124 67.4667 56.124 65.8667C56.124 64.4001 58.0094 62.8001 58.952 61.3334C59.8947 62.8001 61.78 64.4001 61.78 65.8667Z" fill="#C2E3F7"/>
<path d="M51.6813 72.5333C51.6813 74.1333 50.4679 75.3333 48.8533 75.3333C47.2373 75.3333 46.0239 74.1333 46.0239 72.5333C46.0239 71.0666 47.9106 69.4666 48.8533 67.9999C49.7959 69.4666 51.6813 71.0666 51.6813 72.5333Z" fill="white"/>
<path d="M29.8656 72.5333C29.8656 74.1333 28.6549 75.3333 27.0389 75.3333C25.4229 75.3333 24.2109 74.1333 24.2109 72.5333C24.2109 71.0666 26.0963 69.5999 27.0389 67.9999C27.9816 69.4666 29.8656 71.0666 29.8656 72.5333Z" fill="white"/>
<path d="M19.7668 65.8667C19.7668 67.4667 18.5548 68.6667 16.9388 68.6667C15.3228 68.6667 14.1108 67.4667 14.1108 65.8667C14.1108 64.4001 15.9962 62.9334 16.9388 61.3334C17.8815 62.8001 19.7668 64.4001 19.7668 65.8667Z" fill="#C2E3F7"/>
<path d="M28.6546 54.1333L37.5412 35.0666V50.9333H48.8532L47.2372 54.1333L37.5412 73.2V58.9333H26.3652L28.6546 54.1333Z" fill="white"/>
<path d="M28.7892 15.2001C28.7892 17.4668 28.2492 19.6001 27.1732 21.6001C24.3452 21.7334 21.7866 22.9334 20.1706 24.9334C19.6319 25.4668 19.2279 26.1334 18.8239 26.9334C18.6892 27.2001 18.5546 27.3334 18.5546 27.6001C18.4199 27.8668 18.4199 28.0001 18.2852 28.2668C17.3426 28.5334 16.3999 28.5334 15.3226 28.5334C8.99456 28.5334 3.74256 24.2668 2.26123 18.4001C4.28123 20.1334 6.8399 21.2001 9.66657 21.2001C15.8612 21.2001 20.8439 16.2668 20.8439 10.1334C20.8439 6.93345 19.4972 4.13345 17.4772 2.13345C23.8066 3.06678 28.7892 8.53345 28.7892 15.2001Z" fill="white"/>
<path d="M69.0519 19.2C69.3199 19.4666 69.5892 19.8666 69.5892 20.4C69.5892 20.8 69.4559 21.3333 69.0519 21.6C68.7826 21.8666 68.3772 22.1333 67.8399 22.1333C66.8972 22.1333 66.0879 21.3333 66.0879 20.4C66.0879 20 66.2239 19.4666 66.6279 19.2C66.8972 18.9333 67.3012 18.6666 67.8399 18.6666C68.3772 18.6666 68.7826 18.8 69.0519 19.2Z" fill="#0B93E2"/>
<path d="M57.3362 5.86672C57.6055 6.13338 57.8749 6.53338 57.8749 7.06672C57.8749 7.46672 57.7402 8.00005 57.3362 8.26672C57.0669 8.53338 56.6629 8.80005 56.1242 8.80005C55.1829 8.80005 54.3735 8.00005 54.3735 7.06672C54.3735 6.66672 54.5095 6.13338 54.9135 5.86672C55.1828 5.60005 55.5855 5.33338 56.1242 5.33338C56.5282 5.33338 56.9322 5.46672 57.3362 5.86672Z" fill="#0B93E2"/>
<path d="M53.9691 32.5332C54.2398 32.7999 54.5091 33.1999 54.5091 33.7332C54.5091 34.1332 54.3731 34.6666 53.9691 34.9332C53.6998 35.1999 53.2971 35.4666 52.7571 35.4666C51.8145 35.4666 51.0078 34.6666 51.0078 33.7332C51.0078 33.3332 51.1411 32.7999 51.5451 32.5332C51.8145 32.2666 52.2185 31.9999 52.7571 31.9999C53.2971 31.9999 53.5665 32.1332 53.9691 32.5332Z" fill="#0B93E2"/>
<path d="M3.4734 47.4668C3.74274 47.7335 4.01208 48.1335 4.01208 48.6668C4.01208 49.2001 3.8774 49.6001 3.4734 49.8668C3.20407 50.1335 2.80006 50.4001 2.26139 50.4001C1.31873 50.4001 0.510742 49.6001 0.510742 48.6668C0.510742 48.2668 0.645382 47.7335 1.04938 47.4668C1.31871 47.2001 1.72273 46.9335 2.26139 46.9335C2.80006 46.9335 3.0694 47.2001 3.4734 47.4668Z" fill="#0B93E2"/>
<path d="M52.7575 29.8667C51.8148 29.8667 51.1415 29.2 51.1415 28.2667C51.0081 22.8 46.4281 21.7334 46.2948 21.6C45.3521 21.3334 44.8134 20.5334 45.0814 19.6C45.3521 18.6667 46.1601 18.1334 47.1028 18.4C49.6601 18.9334 54.3735 21.7334 54.6428 28.1334C54.5095 29.0667 53.7001 29.8667 52.7575 29.8667Z" fill="#0B93E2"/>
<path d="M29.0573 57.2H37.6759C38.6186 57.2 39.4266 58 39.4266 58.8V66L46.1599 52.5334H37.6759C36.7333 52.5334 35.9253 51.7334 35.9253 50.8001V42.6667L29.0573 57.2ZM37.5413 74.8C37.4066 74.8 37.2719 74.8 37.1373 74.8C36.3293 74.6667 35.7906 74 35.7906 73.2V60.6667H26.2306C25.6906 60.6667 25.1533 60.4 24.7493 59.8667C24.4799 59.3334 24.3452 58.8 24.6146 58.2667L35.7906 34.5334C36.0599 33.8667 36.8679 33.4667 37.6759 33.6001C38.4839 33.7334 39.0226 34.4001 39.0226 35.2001V49.3334H48.5826C49.1226 49.3334 49.6599 49.6001 50.0653 50.1334C50.3346 50.6667 50.3346 51.2001 50.1986 51.7334L39.0226 73.8667C38.7533 74.5334 38.2146 74.8 37.5413 74.8Z" fill="#0B93E2"/>
<path d="M5.89747 22.2666C8.05214 25.0666 11.5521 26.9333 15.3228 26.9333C15.8615 26.9333 16.4001 26.9333 17.0735 26.8C17.2081 26.5333 17.2081 26.4 17.3428 26.1333C17.7468 25.3333 18.2855 24.5333 18.8241 23.8666C20.7095 21.7333 23.2681 20.4 26.0961 20C26.7695 18.5333 27.1735 16.9333 27.1735 15.2C27.1735 11.0666 25.0188 7.46664 21.7868 5.3333C22.3255 6.79997 22.7295 8.39997 22.7295 9.99997C22.7295 17.0666 16.9388 22.8 9.80147 22.8C8.32147 22.8 7.10814 22.5333 5.89747 22.2666ZM15.3228 30.1333C8.32146 30.1333 2.26148 25.4666 0.645485 18.6666C0.510818 18 0.780127 17.2 1.45346 16.8C2.12679 16.4 2.93481 16.5333 3.47348 16.9333C5.22415 18.4 7.37881 19.3333 9.80147 19.3333C15.0535 19.3333 19.3628 15.0666 19.3628 9.86664C19.3628 7.3333 18.2855 4.9333 16.4001 3.06664C15.8615 2.5333 15.7268 1.7333 16.1308 1.06664C16.4001 0.399969 17.2081 -3.0756e-05 17.8815 0.133303C21.3828 0.666636 24.6148 2.5333 27.0388 5.19997C29.4628 7.86664 30.6735 11.3333 30.6735 14.9333C30.6735 17.4666 30.0001 19.8666 28.7895 22C28.6548 22.1333 28.6548 22.2666 28.5201 22.4C28.2495 22.6666 27.8468 22.9333 27.3068 22.9333C25.0188 22.9333 22.9988 24 21.5175 25.7333C21.1135 26.2666 20.7095 26.8 20.4401 27.3333C20.3055 27.4666 20.3055 27.7333 20.1708 27.8666C20.0361 28 20.0361 28.2666 20.0361 28.4C19.9015 29.0666 19.3628 29.4666 18.6895 29.6C17.4775 30 16.4001 30.1333 15.3228 30.1333Z" fill="#0B93E2"/>
<path d="M59.0865 55.8667H47.1025C46.1598 55.8667 45.3518 55.0667 45.3518 54.1334C45.3518 53.2 46.1598 52.4 47.1025 52.4H58.9518C64.3385 52.2667 68.6465 47.7334 68.6465 42.2667C68.6465 36.8 64.0691 32.2667 58.4131 32.2667H58.2785C57.7398 32.2667 57.3358 32 56.9318 31.7334C56.5278 31.4667 56.5278 30.8 56.5278 30.4C56.6625 29.7334 56.6625 29.0667 56.6625 28.4C56.6625 21.6 51.0078 16.1334 44.0052 16.1334C39.1572 16.1334 34.8478 18.8 32.6932 22.9334C32.2892 23.7334 31.3465 24 30.5398 23.7334C29.5972 23.3334 28.5198 23.0667 27.3065 23.0667C27.1732 23.0667 27.1732 23.0667 27.0385 23.0667C24.7492 23.0667 22.5945 24.1334 21.2478 25.8667C20.8438 26.4 20.4398 26.9334 20.1705 27.4667C20.1705 27.7334 20.1705 27.8667 20.0358 28C19.9012 28.1334 19.9012 28.4 19.9012 28.5334C19.6318 29.2 19.6318 30 19.6318 30.6667V30.8C19.6318 31.6 19.0932 32.4 18.2852 32.5334C13.5718 33.4667 10.0718 37.6 10.0718 42.2667C10.0718 46.9334 13.0332 51.2 17.0732 52.4H28.6545C29.5972 52.4 30.4052 53.2 30.4052 54.1334C30.4052 55.0667 29.5972 55.8667 28.7892 55.8667H16.9385C16.8038 55.8667 16.6692 55.8667 16.5345 55.8667C10.8798 54.2667 6.83984 48.6667 6.83984 42.5334C6.83984 36.6667 10.7452 31.6 16.3998 29.8667C16.5345 29.2 16.6692 28.5334 16.8038 27.8667C16.9385 27.6 16.9385 27.3334 17.0732 27.0667C17.2078 26.8 17.3425 26.5334 17.4772 26.2667C17.8812 25.4667 18.4198 24.6667 18.9585 24C20.9785 21.6 24.0758 20.1334 27.3065 20.1334C27.4412 20.1334 27.5772 20.1334 27.5772 20.1334C28.6545 20.1334 29.7305 20.2667 30.6732 20.5334C33.6358 16 38.6185 13.2 44.2745 13.2C53.1612 13.2 60.2985 20.1334 60.2985 28.8C60.2985 29.0667 60.2985 29.3334 60.2985 29.6C67.0305 30.4 72.2838 36 72.2838 42.8C72.1478 49.7334 66.3572 55.6 59.0865 55.8667Z" fill="#0B93E2"/>
<path d="M16.939 64.1335C16.535 64.6668 15.727 65.6001 15.727 65.8668C15.727 66.5335 16.2657 67.0668 16.939 67.0668C17.6124 67.0668 18.151 66.5335 18.151 65.8668C18.0163 65.4668 17.343 64.6668 16.939 64.1335ZM16.939 70.4001C14.3804 70.4001 12.3604 68.4001 12.3604 65.8668C12.3604 64.2668 13.4377 63.0668 14.3803 61.8668C14.7843 61.3335 15.1883 60.9335 15.4577 60.5335C15.727 60.0001 16.2657 59.7335 16.939 59.7335C17.4777 59.7335 18.0163 60.0001 18.4203 60.5335C18.6897 60.9335 19.0937 61.3335 19.4977 61.8668C20.575 63.0668 21.5177 64.4001 21.5177 65.8668C21.383 68.2668 19.363 70.4001 16.939 70.4001Z" fill="#0B93E2"/>
<path d="M27.0386 70.8C26.6346 71.3333 25.8266 72.2667 25.8266 72.5333C25.8266 73.2 26.3653 73.7333 27.0386 73.7333C27.712 73.7333 28.2493 73.2 28.2493 72.5333C28.1146 72.1333 27.4413 71.3333 27.0386 70.8ZM27.0386 77.0667C24.48 77.0667 22.46 75.0667 22.46 72.5333C22.46 70.9333 23.5373 69.7333 24.4799 68.5333C24.8839 68 25.288 67.6 25.5573 67.2C25.8266 66.6667 26.3653 66.4 27.0386 66.4C27.5773 66.4 28.1146 66.6667 28.52 67.2C28.7893 67.6 29.192 68 29.5973 68.5333C30.6733 69.7333 31.6159 71.0667 31.6159 72.5333C31.4813 74.9333 29.4626 77.0667 27.0386 77.0667Z" fill="#0B93E2"/>
<path d="M58.9522 64.1335C58.5482 64.6668 57.7402 65.6001 57.7402 65.8668C57.7402 66.5335 58.2788 67.0668 58.9522 67.0668C59.6255 67.0668 60.1642 66.5335 60.1642 65.8668C60.1642 65.4668 59.3575 64.6668 58.9522 64.1335ZM58.9522 70.4001C56.3935 70.4001 54.3735 68.4001 54.3735 65.8668C54.3735 64.2668 55.4509 63.0668 56.3935 61.8668C56.7989 61.3335 57.2015 60.9335 57.4709 60.5335C57.7402 60.0001 58.2788 59.7335 58.9522 59.7335C59.4908 59.7335 60.0295 60.0001 60.4335 60.5335C60.7029 60.9335 61.1069 61.4668 61.5109 61.8668C62.5882 63.0668 63.5295 64.4001 63.5295 65.8668C63.5295 68.2668 61.5108 70.4001 58.9522 70.4001Z" fill="#0B93E2"/>
<path d="M48.8535 70.8C48.4495 71.3333 47.6402 72.2667 47.6402 72.5333C47.6402 73.2 48.1802 73.7333 48.8535 73.7333C49.5255 73.7333 50.0656 73.2 50.0656 72.5333C50.0656 72.1333 49.2562 71.3333 48.8535 70.8ZM48.8535 77.0667C46.2949 77.0667 44.2749 75.0667 44.2749 72.5333C44.2749 70.9333 45.3522 69.7333 46.2949 68.5333C46.6976 68 47.1029 67.6 47.3709 67.2C47.6402 66.6667 48.1802 66.4 48.8535 66.4C49.3922 66.4 49.9296 66.6667 50.3349 67.2C50.6029 67.6 51.0082 68.1333 51.4122 68.5333C52.4882 69.7333 53.4309 71.0667 53.4309 72.5333C53.4309 74.9333 51.4122 77.0667 48.8535 77.0667Z" fill="#0B93E2"/>
</svg>
